<svg width="29" height="20" viewBox="0 0 29 20" fill="none" xmlns="http://www.w3.org/2000/svg">
<path d="M18.8016 9.89535L28.3636 15.9403V3.59509L18.8016 9.89535Z" fill="white"/>
<path d="M0 3.59509V15.9403L9.56207 9.89535L0 3.59509Z" fill="white"/>
<path d="M26.5908 0.00012207H1.7727C0.888115 0.00012207 0.186116 0.659576 0.0531616 1.50871L14.1818 10.8173L28.3104 1.50871C28.1774 0.659576 27.4754 0.00012207 26.5908 0.00012207Z" fill="white"/>
<path d="M17.1777 10.9662L14.6693 12.6184C14.5204 12.7159 14.352 12.7638 14.1818 12.7638C14.0116 12.7638 13.8432 12.7159 13.6943 12.6184L11.1859 10.9645L0.0567627 18.004C0.193262 18.846 0.891716 19.5001 1.77276 19.5001H26.5909C27.4719 19.5001 28.1704 18.846 28.3069 18.004L17.1777 10.9662Z" fill="white"/>
</svg>
